<svg width="1264" height="711" xmlns="http://www.w3.org/2000/svg" xmlns:xlink="http://www.w3.org/1999/xlink" overflow="hidden"><defs><clipPath id="clip0"><rect x="17" y="-9" width="1264" height="711"/></clipPath></defs><g clip-path="url(#clip0)" transform="translate(-17 9)"><path d="M730 701.974 730 30.2815 730 23.9144 736 23.9144 736 30.2815 736 701.974ZM719.909 40.4027 733 17.9605 746.091 40.4027C746.926 41.8339 746.443 43.6709 745.012 44.5057 743.58 45.3405 741.744 44.8571 740.909 43.426L730.409 25.426 735.591 25.426 725.091 43.426C724.256 44.8571 722.42 45.3405 720.988 44.5057 719.557 43.6709 719.074 41.8339 719.909 40.4027Z"/><text font-family="Arial,Arial_MSFontService,sans-serif" font-weight="400" font-size="18" transform="matrix(-1.83697e-16 -1 1 -1.83697e-16 753.828 560)">Kompleksitet</text><path d="M185.5 565.463 1280.5 565.463" stroke="#000000" stroke-width="1.36745" stroke-miterlimit="8" stroke-dasharray="1.02559 6.15354" fill="none" fill-rule="evenodd"/><text fill="#70AD47" font-family="Times New Roman,Times New Roman_MSFontService,sans-serif" font-weight="400" font-size="33" transform="translate(411.445 650)">P<tspan fill="#000000" x="25.28" y="0">â‰  </tspan><tspan fill="#ED7D31" x="51.4467" y="0">NP</tspan><tspan x="546.676" y="0">P</tspan><tspan fill="#000000" x="571.956" y="0">= </tspan><tspan fill="#ED7D31" x="598.622" y="0">NP</tspan></text><path d="M628.009 394.493C628.009 488.105 552.345 563.993 459.009 563.993 365.673 563.993 290.009 488.105 290.009 394.493 290.009 300.881 365.673 224.993 459.009 224.993 552.345 224.993 628.009 300.881 628.009 394.493Z" stroke="#ED7D31" stroke-width="4" stroke-miterlimit="8" fill="none" fill-rule="evenodd"/><path d="M240 17.9744C240 209.667 322.125 373.974 459 373.974 595.875 373.974 678 209.667 678 17.9744" stroke="#FF0000" stroke-width="4" stroke-miterlimit="8" fill="none" fill-rule="evenodd"/><text fill="#FF0000" font-family="Arial,Arial_MSFontService,sans-serif" font-weight="400" font-size="31" transform="translate(397.27 143)">NP<tspan x="43.6667" y="0">-</tspan>Hard<tspan fill="#000000" x="-25.8691" y="168">NP</tspan><tspan fill="#000000" x="17.7976" y="168">-</tspan><tspan fill="#000000" x="28.2976" y="168">komplett</tspan></text><path d="M571.996 498.5C571.996 534.675 521.404 564.001 458.996 564.001 396.588 564.001 345.996 534.675 345.996 498.5 345.996 462.325 396.588 433.001 458.996 433.001 521.404 433.001 571.996 462.325 571.996 498.5Z" stroke="#70AD47" stroke-width="4" stroke-miterlimit="8" stroke-dasharray="4 4" fill="none" fill-rule="evenodd"/><text fill="#70AD47" font-family="Arial,Arial_MSFontService,sans-serif" font-weight="400" font-size="31" transform="translate(447.916 512)">P<tspan fill="#ED7D31" x="-131.408" y="-107">NP</tspan><tspan fill="#FF0000" x="496.714" y="-369">NP</tspan><tspan fill="#FF0000" x="540.38" y="-369">-</tspan><tspan fill="#FF0000" x="550.88" y="-369">Hard</tspan><tspan x="508.45" y="-126">P</tspan><tspan fill="#000000" x="537.55" y="-126">= </tspan><tspan fill="#ED7D31" x="564.55" y="-126">NP</tspan><tspan fill="#000000" font-family="Cambria Math,Cambria Math_MSFontService,sans-serif" x="455.493" y="-91">â‰ƒ</tspan><tspan fill="#000000" x="487.66" y="-91">NP</tspan><tspan fill="#000000" x="531.327" y="-91">-</tspan><tspan fill="#000000" x="541.827" y="-91">komplett</tspan></text><path d="M1176.05 394.493C1176.05 488.105 1100.16 563.993 1006.55 563.993 912.939 563.993 837.051 488.105 837.051 394.493 837.051 300.881 912.939 224.993 1006.55 224.993 1100.16 224.993 1176.05 300.881 1176.05 394.493Z" stroke="#ED7D31" stroke-width="4" stroke-miterlimit="8" fill="none" fill-rule="evenodd"/><path d="M787 17.9744C787 291.821 811.226 564.974 1006 564.974 1200.77 564.974 1225 291.821 1225 17.9744" stroke="#FF0000" stroke-width="4" stroke-miterlimit="8" fill="none" fill-rule="evenodd"/><rect x="141.5" y="223.5" width="128" height="152" stroke="#000000" stroke-linejoin="round" stroke-miterlimit="10" fill="none"/><text font-family="Calibri,Calibri_MSFontService,sans-serif" font-weight="700" font-size="15" transform="translate(150.311 243)">CIRCUIT-SAT<tspan x="0" y="17">SAT</tspan><tspan x="0" y="35">3</tspan>-CNF<tspan x="36.1667" y="35">-</tspan>SAT<tspan x="0" y="53">CLIQUE</tspan><tspan x="0" y="70">VERTEX</tspan><tspan x="46.6667" y="70">-</tspan>COVER<tspan x="0" y="88">HAM</tspan><tspan x="31" y="88">-</tspan>CYCLE<tspan x="0" y="105">TSP</tspan><tspan x="0" y="123">SUBSET</tspan><tspan x="46.1667" y="123">-</tspan>SUM<tspan font-family="Arial,Arial_MSFontService,sans-serif" font-weight="400" font-size="18" x="808.592" y="430">(ikke bevist)</tspan></text><rect x="19.5001" y="376.5" width="122" height="27" stroke="#ED7D31" stroke-linejoin="round" stroke-miterlimit="10" fill="none"/><text fill="#ED7D31" font-family="Calibri,Calibri_MSFontService,sans-serif" font-weight="700" font-size="15" transform="translate(28.5137 395)">-<tspan fill="#000000" font-family="Arial,Arial_MSFontService,sans-serif" font-weight="400" font-size="18" x="400.293" y="278">(vanlig)</tspan><tspan font-family="Cambria Math,Cambria Math_MSFontService,sans-serif" font-weight="400" font-size="18" x="286.169" y="32">ğ‘‚</tspan><tspan font-family="Cambria Math,Cambria Math_MSFontService,sans-serif" font-weight="400" font-size="18" x="298.602" y="32">(</tspan><tspan font-family="Cambria Math,Cambria Math_MSFontService,sans-serif" font-weight="400" font-size="18" x="305.936" y="32">ğ‘˜</tspan><tspan font-family="Cambria Math,Cambria Math_MSFontService,sans-serif" font-weight="400" font-size="13" x="316.636" y="25">ğ‘›</tspan><tspan font-family="Cambria Math,Cambria Math_MSFontService,sans-serif" font-weight="400" font-size="18" x="326.096" y="32">)</tspan><tspan fill="#70AD47" font-family="Cambria Math,Cambria Math_MSFontService,sans-serif" font-weight="400" font-size="18" x="407.91" y="137">ğ‘‚</tspan><tspan fill="#70AD47" font-family="Cambria Math,Cambria Math_MSFontService,sans-serif" font-weight="400" font-size="18" x="420.343" y="137">(</tspan><tspan fill="#70AD47" font-family="Cambria Math,Cambria Math_MSFontService,sans-serif" font-weight="400" font-size="18" x="427.677" y="137">ğ‘›</tspan><tspan fill="#70AD47" font-family="Cambria Math,Cambria Math_MSFontService,sans-serif" font-weight="400" font-size="13" x="438.15" y="131">ğ‘˜</tspan><tspan fill="#70AD47" font-family="Cambria Math,Cambria Math_MSFontService,sans-serif" font-weight="400" font-size="18" x="447.103" y="137">)</tspan></text><rect x="140.5" y="403.5" width="128" height="81" stroke="#70AD47" stroke-linejoin="round" stroke-miterlimit="10" fill="none"/><text fill="#70AD47" font-family="Calibri,Calibri_MSFontService,sans-serif" font-weight="700" font-size="15" transform="translate(149.394 422)">SHORTEST-PATH<tspan x="0" y="17">LIN/BIN SEARCH</tspan><tspan x="0" y="35">MATCHING</tspan><tspan x="0" y="53">MATRIX</tspan><tspan x="49.1667" y="53">-</tspan>MULTIPL</text><rect x="18.5001" y="178.5" width="122" height="45" stroke="#FF0000" stroke-linejoin="round" stroke-miterlimit="10" fill="none"/><text fill="#FF0000" font-family="Calibri,Calibri_MSFontService,sans-serif" font-weight="700" font-size="15" transform="translate(27.5971 197)">TSP<tspan x="0" y="17">SUBSET</tspan><tspan x="46.1667" y="17">-</tspan>SUM</text><path d="M721.996 402C721.996 437.899 671.628 467.001 609.496 467.001 547.364 467.001 496.996 437.899 496.996 402 496.996 366.101 547.364 337.001 609.496 337.001 671.628 337.001 721.996 366.101 721.996 402Z" stroke="#0070C0" stroke-width="4" stroke-miterlimit="8" fill="none" fill-rule="evenodd"/><text fill="#0070C0" font-family="Arial,Arial_MSFontService,sans-serif" font-weight="400" font-size="31" transform="translate(523.94 415)">Co<tspan x="40.1667" y="0">-</tspan>NP</text></g></svg>